<svg xmlns="http://www.w3.org/2000/svg" viewBox="0 0 200 200" width="200" height="200">
  <!-- Hammer Icon (centered, larger, no background) -->
  <g transform="translate(100, 100) rotate(-45) scale(1.5)">
    <!-- Hammer head -->
    <rect x="-45" y="-18" width="55" height="36" fill="#E0E0E0" rx="4"/>
    <!-- Highlight on hammer head -->
    <rect x="-45" y="-18" width="55" height="12" fill="#F5F5F5" rx="4" opacity="0.5"/>

    <!-- Claw part -->
    <path d="M 10,-18 L 25,-18 L 25,-8 L 32,0 L 25,8 L 25,18 L 10,18 Z" fill="#BDBDBD"/>
    <!-- Claw highlight -->
    <path d="M 10,-18 L 20,-18 L 20,-8 L 25,0 L 20,8 L 20,18 L 10,18 Z" fill="#D0D0D0"/>

    <!-- Metal connection band -->
    <ellipse cx="0" cy="0" rx="10" ry="10" fill="#9E9E9E"/>

    <!-- Handle (wooden) -->
    <rect x="-8" y="-6" width="16" height="70" fill="#8D6E63" rx="3"/>
    <!-- Handle highlight -->
    <rect x="-8" y="-6" width="6" height="70" fill="#A1887F" rx="3" opacity="0.6"/>

    <!-- Handle grip lines -->
    <line x1="-8" y1="15" x2="8" y2="15" stroke="#6D4C41" stroke-width="2"/>
    <line x1="-8" y1="30" x2="8" y2="30" stroke="#6D4C41" stroke-width="2"/>
    <line x1="-8" y1="45" x2="8" y2="45" stroke="#6D4C41" stroke-width="2"/>
  </g>
</svg>
